<!DOCTYPE svg PUBLIC "-//W3C//DTD SVG 20010904//EN" "http://www.w3.org/TR/2001/REC-SVG-20010904/DTD/svg10.dtd">
<svg version="1.0" xmlns="http://www.w3.org/2000/svg" width="794px" height="640px" viewBox="0 0 7940 6400" preserveAspectRatio="xMidYMid meet">
<g id="layer101" fill="black" stroke="none">
 <path d="M2120 5125 c-6 -7 -34 -28 -61 -46 -41 -26 -57 -45 -86 -103 -41 -82 -72 -170 -73 -206 0 -14 -9 -50 -21 -80 -32 -84 -49 -156 -49 -210 0 -27 -4 -52 -10 -55 -5 -3 -10 -21 -10 -39 0 -19 -7 -47 -15 -62 -8 -16 -15 -37 -15 -46 0 -10 -15 -31 -34 -49 -19 -17 -39 -43 -45 -57 -20 -53 -50 -189 -55 -248 -2 -32 -9 -75 -14 -94 -6 -19 -13 -73 -17 -120 -3 -47 -12 -121 -21 -165 -8 -44 -21 -118 -30 -165 -8 -47 -24 -116 -34 -155 -10 -38 -26 -124 -35 -190 -9 -66 -20 -134 -25 -151 -6 -17 -10 -45 -10 -62 0 -33 -14 -105 -31 -157 -20 -60 -38 -132 -64 -260 -36 -179 -29 -165 -81 -165 -66 0 -169 -29 -192 -54 -27 -28 -62 -123 -62 -166 0 -19 8 -75 19 -125 21 -108 104 -279 163 -340 22 -22 63 -66 91 -97 45 -49 60 -59 112 -73 123 -32 197 4 290 138 83 121 93 143 101 217 10 98 -5 138 -79 212 -68 69 -107 125 -107 154 1 36 36 81 136 177 94 90 105 97 141 97 53 0 78 21 141 117 28 43 68 102 89 132 21 29 43 64 48 76 6 12 21 36 35 54 14 17 39 49 57 71 17 22 44 61 60 86 15 25 45 64 66 86 20 22 37 45 37 50 0 15 74 120 116 164 22 22 52 55 67 73 26 29 33 32 64 26 20 -3 43 -11 53 -17 24 -15 67 -2 75 22 4 13 -2 33 -14 54 -25 40 -27 53 -6 36 14 -12 120 -182 137 -220 3 -8 27 -37 52 -63 25 -27 46 -55 46 -62 0 -15 90 -115 196 -220 34 -33 69 -75 78 -92 9 -18 30 -40 46 -48 79 -41 312 -317 365 -432 8 -17 26 -49 41 -70 36 -53 84 -149 84 -169 0 -9 -13 -44 -29 -78 -38 -81 -44 -105 -33 -119 5 -7 12 -39 15 -73 8 -97 80 -235 170 -325 124 -124 142 -139 157 -139 8 0 26 -13 40 -30 22 -26 36 -31 102 -41 75 -11 77 -11 128 17 103 56 196 254 171 366 -15 67 -64 174 -96 209 -49 54 -57 147 -18 204 10 15 12 39 7 90 -5 56 -2 81 14 125 11 30 28 81 36 112 l16 57 48 -6 c38 -4 50 -2 63 13 25 30 50 102 64 189 20 121 33 164 110 370 38 100 50 125 84 172 50 69 72 66 162 -19 24 -24 70 -60 102 -81 31 -21 57 -42 57 -47 0 -6 42 -41 93 -78 151 -112 278 -202 283 -202 2 0 39 -24 82 -54 42 -29 91 -61 107 -70 17 -9 48 -30 70 -47 22 -16 69 -43 104 -60 35 -16 84 -50 111 -77 95 -96 152 -142 175 -142 32 0 49 -23 36 -49 -6 -11 -8 -26 -5 -34 3 -8 -4 -33 -15 -56 -27 -52 -26 -90 3 -176 36 -104 64 -147 149 -225 103 -93 142 -112 243 -118 101 -5 140 7 196 61 32 31 49 41 70 38 62 -6 148 75 148 139 0 62 -81 204 -164 290 -35 36 -66 77 -70 92 -5 21 -18 33 -56 49 -63 27 -82 53 -110 154 -12 43 -28 88 -35 100 -7 11 -18 45 -24 75 -6 30 -18 73 -25 95 -8 22 -20 60 -27 85 -7 25 -20 65 -29 90 -10 25 -30 88 -46 140 -15 52 -34 104 -40 115 -6 11 -20 45 -29 75 -10 30 -37 96 -60 146 -23 50 -46 101 -50 115 -4 13 -18 40 -30 59 -12 19 -25 46 -30 60 -7 23 -42 88 -118 218 -15 26 -44 81 -65 122 -59 118 -113 212 -142 246 -14 16 -32 46 -40 65 -8 18 -36 70 -62 113 -26 44 -48 83 -48 87 0 5 -14 37 -31 71 -22 45 -31 79 -32 119 -2 45 -9 66 -37 110 -26 41 -35 69 -40 114 -4 54 -8 61 -34 74 -17 8 -64 17 -105 22 -42 4 -96 13 -121 19 -25 6 -88 18 -140 25 -52 7 -129 18 -170 25 -41 6 -134 14 -206 19 -71 4 -136 11 -142 15 -19 12 -358 39 -442 36 -86 -4 -64 -4 -325 5 -236 7 -825 17 -875 14 -19 -2 -78 -2 -130 -2 -52 1 -216 1 -363 2 -148 0 -285 5 -305 10 -78 19 -119 21 -132 6z m378 -310 c136 -14 254 -28 262 -32 8 -3 107 -10 220 -15 340 -14 391 -20 424 -45 l28 -23 402 4 c220 3 493 9 606 15 285 15 743 29 875 27 l110 -1 2 -85 c3 -147 24 -270 53 -305 7 -9 12 -36 11 -62 -1 -34 6 -59 29 -101 16 -31 30 -63 30 -71 0 -9 11 -40 25 -69 14 -30 25 -63 25 -74 0 -11 23 -66 50 -123 37 -77 50 -114 50 -148 0 -26 6 -49 14 -56 19 -16 56 -96 56 -121 0 -12 11 -31 25 -44 14 -13 25 -34 25 -48 0 -52 13 -87 51 -137 25 -33 39 -62 39 -82 0 -35 21 -79 63 -132 17 -22 49 -86 73 -143 48 -119 42 -130 -34 -61 -26 24 -68 58 -93 75 -26 17 -71 53 -100 80 -30 27 -69 58 -87 70 -34 20 -62 43 -262 210 -58 48 -124 103 -148 122 -37 30 -43 39 -38 62 10 49 -1 58 -63 58 -48 0 -66 5 -104 31 -26 17 -49 34 -52 38 -6 10 19 100 39 136 9 17 16 35 16 40 0 6 11 26 24 45 13 20 34 66 47 103 24 72 21 98 -15 105 -23 5 -78 -55 -106 -115 -36 -75 -124 -193 -144 -193 -13 0 -109 43 -136 60 -27 18 -63 31 -78 28 -27 -5 -37 -34 -24 -63 12 -25 16 -27 51 -21 45 7 58 -4 67 -55 4 -19 16 -44 26 -56 27 -29 16 -43 -33 -43 -34 0 -45 -6 -89 -52 -27 -29 -52 -61 -56 -72 -3 -10 -32 -44 -63 -75 -31 -31 -63 -72 -70 -91 -7 -19 -19 -50 -27 -68 -8 -18 -14 -39 -14 -47 0 -8 -9 -29 -20 -47 -11 -18 -20 -49 -20 -68 0 -19 -7 -44 -15 -54 -8 -11 -15 -29 -15 -41 0 -11 -9 -28 -20 -38 -22 -19 -26 -63 -9 -101 9 -20 8 -32 -10 -68 -11 -25 -21 -55 -21 -69 -1 -32 -32 -126 -69 -202 -16 -34 -33 -78 -36 -97 -4 -19 -14 -46 -23 -60 -9 -14 -34 -70 -57 -125 -43 -106 -69 -132 -80 -78 -16 77 -58 193 -88 239 -14 22 -47 66 -75 99 -82 96 -107 128 -132 165 -13 19 -48 63 -78 98 -59 68 -77 91 -147 192 -25 36 -72 101 -105 145 -33 44 -86 120 -117 170 -32 49 -86 118 -120 153 -35 34 -63 70 -63 78 0 20 -72 102 -110 126 -27 16 -29 20 -18 43 8 18 8 31 0 49 -6 13 -8 42 -5 65 11 84 -49 103 -162 52 -35 -16 -79 -32 -97 -36 -18 -4 -50 -23 -70 -41 -21 -18 -53 -40 -72 -48 -107 -44 -302 -219 -326 -291 -7 -20 -20 -37 -33 -41 -26 -8 -67 -43 -67 -58 0 -6 -44 -56 -98 -111 -95 -98 -152 -166 -152 -181 0 -5 -13 -22 -29 -39 -17 -16 -37 -43 -45 -59 -8 -16 -36 -53 -63 -83 -26 -30 -57 -71 -69 -91 -11 -20 -28 -38 -38 -40 -19 -4 -17 15 15 111 10 31 19 67 19 80 0 23 25 109 110 377 58 185 116 390 125 445 6 40 20 111 50 254 8 40 15 101 15 134 0 84 19 187 40 217 10 14 26 55 35 90 9 36 22 74 29 85 8 11 17 57 21 102 6 73 5 88 -15 127 -19 40 -20 49 -8 73 24 49 39 50 356 18z m4186 -2961 c10 -25 7 -33 -15 -45 -17 -9 -25 -7 -45 12 l-24 23 27 12 c38 17 50 17 57 -2z"/>
 </g>

</svg>